<svg width="24" height="24" viewBox="0 0 24 24" fill="none" xmlns="http://www.w3.org/2000/svg">
    <path
        d="M12 22C17.5234 22 22 17.5234 22 12C22 6.47656 17.5234 2 12 2C6.47656 2 2 6.47656 2 12C2 17.5234 6.47656 22 12 22ZM12 7C12.5195 7 12.9375 7.41797 12.9375 7.9375V12.3125C12.9375 12.832 12.5195 13.25 12 13.25C11.4805 13.25 11.0625 12.832 11.0625 12.3125V7.9375C11.0625 7.41797 11.4805 7 12 7ZM13.25 15.75C13.25 16.4414 12.6914 17 12 17C11.3086 17 10.75 16.4414 10.75 15.75C10.75 15.0586 11.3086 14.5 12 14.5C12.6914 14.5 13.25 15.0586 13.25 15.75Z"
        fill="#C82400" />
</svg>